<svg width="60" height="65" viewBox="0 0 60 65" fill="none" xmlns="http://www.w3.org/2000/svg">
<path d="M59.2917 24.9892C59.3555 21.8846 58.9735 18.7868 58.1574 15.7907C57.0626 12.0667 54.7904 8.79779 51.6813 6.47399C45.5658 1.68241 39.8502 -0.303343 33.1682 0.0357404C29.6434 0.279844 26.1411 0.780588 22.6891 1.53399C17.8022 2.51657 14.2521 4.23474 11.8352 6.78707C9.91983 8.82666 8.44088 11.2357 7.48884 13.8667C7.0853 15.0259 6.75673 16.2099 6.50517 17.4113L6.41851 17.7862C6.19034 18.63 5.88236 19.4501 5.49876 20.2356C5.27559 20.7361 5.05134 21.2366 4.85742 21.7522C4.60627 22.3244 4.50594 22.9514 4.56601 23.5733C4.78642 24.5411 5.34739 25.3973 6.14659 25.9859C6.67851 26.4734 7.02734 26.8147 7.03059 27.1267C6.98823 27.2883 6.92448 27.4435 6.84101 27.5882C5.54366 30.3236 3.95341 32.9102 2.09817 35.3026C1.32034 36.2527 0.505675 37.3609 0.671425 38.4865C0.908186 39.3407 1.47223 40.0671 2.24117 40.508C2.59963 40.7548 2.97751 40.9722 3.37109 41.158C3.83801 41.3963 4.62126 41.795 4.67109 42.0821C4.7413 42.4469 4.70016 42.8243 4.55301 43.1654C4.39159 43.5034 4.22801 43.7959 4.08176 44.0505C3.68418 44.7536 3.01792 45.9322 4.02001 46.7751C4.25401 46.9809 4.65484 47.2962 5.02101 47.5767C4.75045 48.0526 4.62893 48.5987 4.67217 49.1443C4.73097 49.5684 4.96174 49.9497 5.31026 50.1984C5.55292 50.3707 5.81184 50.5234 6.06859 50.6664C6.70559 51.0293 6.95367 51.1994 7.04359 51.5331C7.10205 51.9744 7.06209 52.4231 6.92659 52.8472C6.86376 53.1321 6.80309 53.4159 6.76517 53.6997C6.6554 54.6851 6.77974 55.6824 7.12809 56.6107C7.68828 58.6696 9.76322 59.9287 11.8482 59.475C14.9415 58.7291 17.9923 57.8167 20.9872 56.7417C23.4225 58.1804 24.9619 62.5322 25.3628 64.1647C25.4815 64.6493 25.9158 64.9901 26.4147 64.9902L53.6063 64.9155C53.9493 64.9144 54.2715 64.751 54.475 64.4749C54.6785 64.1988 54.7393 63.8427 54.6388 63.5148C54.3702 62.7754 53.9985 62.0777 53.5348 61.4423C53.2788 61.0748 53.0472 60.6908 52.8415 60.2929C52.3531 59.2937 51.9438 58.2578 51.6173 57.1946C50.999 55.102 50.5718 52.9576 50.3412 50.7877C49.9573 47.5483 50.4465 44.2651 51.7582 41.2782C52.56 39.6244 53.5467 38.0667 54.6994 36.6351C55.3494 35.7543 56.0287 34.8443 56.6375 33.8834C58.3471 31.2301 59.2676 28.1456 59.2917 24.9892ZM52.9607 35.3535C51.7091 36.9161 50.6398 38.6164 49.7735 40.4213C48.3076 43.7623 47.7615 47.4345 48.1918 51.0575C48.4344 53.3559 48.8862 55.6273 49.5417 57.8435C49.9007 59.0111 50.3499 60.1492 50.885 61.2473C51.1314 61.7319 51.4105 62.1992 51.7203 62.6459L51.7983 62.764L27.2337 62.8333C26.5121 60.2627 25.205 57.894 23.4149 55.913C23.6912 55.8166 23.9566 55.7267 24.196 55.64C25.0172 55.3529 25.6379 55.1352 25.9478 55.0377C30.592 53.5795 32.9147 51.4692 32.8518 48.7641C32.8167 48.175 32.3326 47.7131 31.7425 47.7057C31.4552 47.7125 31.1823 47.8332 30.984 48.0413C30.7857 48.2493 30.6782 48.5277 30.6852 48.815C30.7112 49.9308 29.7979 51.558 25.2967 52.9707C24.9717 53.0725 24.3314 53.2957 23.4788 53.5957C22.7064 53.8666 21.7585 54.1981 20.7218 54.5523C17.6701 55.656 14.5611 56.5941 11.4083 57.3625C10.3933 57.5581 9.40539 56.9158 9.17234 55.9087C8.93841 55.3005 8.84902 54.6463 8.91126 53.9977C8.94051 53.7734 8.99142 53.5492 9.04126 53.3238C9.26354 52.572 9.2985 51.7772 9.14309 51.0087C8.83211 50.0141 8.10256 49.2046 7.14542 48.7922L6.91359 48.659C7.02961 48.4224 7.16858 48.1978 7.32851 47.9884C7.50873 47.7583 7.58829 47.465 7.54912 47.1754C7.50996 46.8857 7.35538 46.6241 7.12051 46.4501C6.86051 46.2572 6.24084 45.7936 5.79667 45.4372C5.85192 45.3364 5.91367 45.2205 5.97109 45.1241C6.13792 44.8305 6.32751 44.4914 6.51276 44.1047C6.85925 43.3471 6.9611 42.5004 6.80417 41.6823C6.55176 40.3531 5.28751 39.7052 4.35476 39.2329C4.04028 39.0839 3.73879 38.9088 3.45342 38.7097C3.22888 38.5534 3.01598 38.3811 2.81642 38.194C2.81642 38.0315 2.98976 37.635 3.82284 36.6177C5.75849 34.122 7.41808 31.4239 8.77259 28.5707C9.03343 28.1241 9.17934 27.6197 9.19726 27.1028C9.08683 26.0123 8.50755 25.0238 7.61017 24.3945C7.17684 23.9937 6.75867 23.6145 6.71209 23.2808C6.71639 23.0187 6.77543 22.7604 6.88542 22.5225C7.06309 22.0523 7.27001 21.5908 7.47692 21.1293C7.91855 20.218 8.27084 19.266 8.52884 18.2867L8.61659 17.9086C8.84793 16.7965 9.15044 15.7005 9.52226 14.6272C10.3714 12.2677 11.6938 10.1067 13.4082 8.27666C15.5066 6.06666 18.6829 4.54999 23.1159 3.65841C26.4635 2.92579 29.8601 2.43844 33.2787 2.20024C39.4082 1.87524 44.6699 3.73207 50.3423 8.18241C53.0985 10.2145 55.1109 13.0959 56.0698 16.3832C56.8299 19.1763 57.1852 22.0639 57.125 24.9578C57.106 27.7176 56.3023 30.415 54.8078 32.7351C54.2401 33.6256 53.5879 34.5042 52.9574 35.3535H52.9607Z" fill="#2F80ED"/>
<path d="M22.4583 18.4167H23.5417C24.14 18.4167 24.625 17.9316 24.625 17.3333C24.625 16.735 24.14 16.25 23.5417 16.25H22.4583C20.6634 16.25 19.2083 17.7051 19.2083 19.5V20.5833C19.2083 22.3782 20.6634 23.8333 22.4583 23.8333H23.5417C24.14 23.8333 24.625 23.3483 24.625 22.75C24.625 22.1517 24.14 21.6667 23.5417 21.6667H22.4583C21.86 21.6667 21.375 21.1816 21.375 20.5833V19.5C21.375 18.9017 21.86 18.4167 22.4583 18.4167Z" fill="#2F80ED"/>
<path d="M30.0417 15.1667C29.4434 15.1667 28.9584 15.6517 28.9584 16.25V18.4167C28.9584 19.015 28.4733 19.5 27.875 19.5H26.7917C26.1934 19.5 25.7083 19.985 25.7083 20.5833C25.7083 21.1816 26.1934 21.6667 26.7917 21.6667H27.875C29.6699 21.6667 31.125 20.2116 31.125 18.4167V16.25C31.125 15.6517 30.64 15.1667 30.0417 15.1667Z" fill="#2F80ED"/>
<path d="M34.375 15.1667V14.0833C34.375 12.2884 32.9199 10.8333 31.125 10.8333H28.9583C27.1634 10.8333 25.7083 12.2884 25.7083 14.0833V15.1667C25.7083 15.765 26.1934 16.25 26.7917 16.25C27.39 16.25 27.875 15.765 27.875 15.1667V14.0833C27.875 13.485 28.36 13 28.9583 13H31.125C31.7233 13 32.2084 13.485 32.2084 14.0833V15.1667C32.2084 15.765 32.6934 16.25 33.2917 16.25C33.89 16.25 34.375 15.765 34.375 15.1667Z" fill="#2F80ED"/>
<path d="M37.625 22.75H36.5417C35.9434 22.75 35.4584 22.265 35.4584 21.6667V20.5833C35.4584 19.985 34.9733 19.5 34.375 19.5C33.7767 19.5 33.2917 19.985 33.2917 20.5833V21.6667C33.2917 23.4616 34.7468 24.9167 36.5417 24.9167H37.625C38.2233 24.9167 38.7084 24.4316 38.7084 23.8333C38.7084 23.235 38.2233 22.75 37.625 22.75Z" fill="#2F80ED"/>
<path d="M43.0417 19.5C43.0417 18.9017 42.5567 18.4167 41.9583 18.4167H40.875C40.2767 18.4167 39.7917 17.9316 39.7917 17.3333C39.7917 16.735 40.2767 16.25 40.875 16.25H41.9583C42.5567 16.25 43.0417 15.765 43.0417 15.1667C43.0417 14.5683 42.5567 14.0833 41.9583 14.0833H40.875C39.0801 14.0833 37.625 15.5384 37.625 17.3333C37.625 19.1283 39.0801 20.5833 40.875 20.5833H41.9583C42.5567 20.5833 43.0417 20.0983 43.0417 19.5Z" fill="#2F80ED"/>
<path d="M46.2917 19.5C45.6934 19.5 45.2084 19.985 45.2084 20.5833V22.75C45.2084 23.3483 44.7233 23.8333 44.125 23.8333H43.0417C42.4434 23.8333 41.9583 24.3183 41.9583 24.9167C41.9583 25.515 42.4434 26 43.0417 26H44.125C45.9199 26 47.375 24.5449 47.375 22.75V20.5833C47.375 19.985 46.89 19.5 46.2917 19.5Z" fill="#2F80ED"/>
<path d="M54.915 22.75C54.915 22.7327 54.9064 22.7186 54.9053 22.7012C54.8081 20.7654 54.5001 18.8459 53.9866 16.9769C53.1493 14.1338 51.401 11.6445 49.0109 9.8919C44.111 6.04824 39.6682 4.33332 34.6014 4.33332C34.2028 4.33332 33.7998 4.34415 33.387 4.36365C33.0176 4.38315 32.6482 4.4254 32.2788 4.45574C32.2539 4.45574 32.2333 4.44165 32.2084 4.44165C32.1515 4.44793 32.0953 4.45917 32.0404 4.47524C29.1852 4.75065 26.3477 5.1872 23.5417 5.78282C22.3111 6.02519 21.1002 6.3587 19.919 6.78057C19.8941 6.79032 19.8692 6.79574 19.8454 6.80657C18.019 7.40736 16.3554 8.42042 14.9834 9.76732C13.6552 11.1937 12.5973 12.8496 11.8612 14.6542C11.828 14.7154 11.8007 14.7796 11.7799 14.846C11.7074 15.0237 11.624 15.1916 11.5568 15.3725C11.2242 16.2749 10.701 18.5217 10.6349 18.8045C10.3911 20.0167 9.78662 24.1713 12.2447 26.7778C13.8047 28.431 16.1902 29.042 19.3232 28.5978L20.7814 28.3898C27.732 27.3899 31.2204 26.8883 34.2223 29.8242C34.7997 30.3886 35.3912 30.9649 36.0065 31.525C35.3251 33.6678 34.4411 38.2417 38.0649 40.95C41.9584 43.875 41.9584 44.6669 41.9584 46.5833C41.9563 46.9598 42.1498 47.3103 42.4695 47.5092C42.7892 47.708 43.1892 47.7266 43.526 47.5583C43.8098 47.411 46.2917 46.0287 46.2917 41.1667C46.2917 38.5071 48.2742 36.2082 50.2318 34.3059L50.2643 34.2767C51.3258 33.548 52.2439 32.6299 52.9726 31.5683C53.7585 30.3294 54.3207 28.962 54.6334 27.5286C54.6974 27.3889 54.7306 27.237 54.7309 27.0833C54.8669 26.3727 54.943 25.6519 54.9584 24.9286C54.9692 24.2017 54.953 23.4812 54.914 22.7695C54.9148 22.763 54.9152 22.7565 54.915 22.75ZM44.125 41.1667C44.1434 42.0677 44.0146 42.9656 43.7437 43.8252C43.2378 42.5587 42.0656 41.2468 39.3584 39.2156C37.2058 37.6036 37.3575 34.9234 37.8222 33.0406C39.8519 34.6698 42.3697 35.5705 44.9722 35.5983C45.3942 35.5952 45.8158 35.5706 46.2354 35.5247C44.9337 37.1238 44.1924 39.1058 44.125 41.1667ZM51.145 30.4135C50.3869 31.5499 49.3145 32.4412 48.0586 32.9788C46.0703 33.6189 43.9267 33.5869 41.9584 32.8878V31.4167C41.9584 30.8183 42.4434 30.3333 43.0417 30.3333H46.2917C46.89 30.3333 47.375 29.8483 47.375 29.25C47.375 28.6517 46.89 28.1667 46.2917 28.1667H43.0417C41.2468 28.1667 39.7917 29.6217 39.7917 31.4167V31.7536C38.3366 30.7199 36.9787 29.5559 35.7346 28.2761C34.4769 27.0012 32.8752 26.12 31.125 25.74V24.9167C31.125 24.3183 30.64 23.8333 30.0417 23.8333C29.4434 23.8333 28.9584 24.3183 28.9584 24.9167V25.4757C26.1119 25.4814 23.2715 25.7391 20.4705 26.2459L19.0166 26.4528C18.363 26.5491 17.7017 26.5832 17.0417 26.5547V26C17.0417 25.4017 16.5567 24.9167 15.9584 24.9167C15.3601 24.9167 14.875 25.4017 14.875 26V26.052C14.4794 25.865 14.1209 25.6081 13.8166 25.2937C13.1957 24.5754 12.7984 23.6912 12.6737 22.75H13.7917C15.5866 22.75 17.0417 21.2949 17.0417 19.5C17.0417 18.9017 16.5567 18.4167 15.9584 18.4167C15.3601 18.4167 14.875 18.9017 14.875 19.5C14.875 20.0983 14.39 20.5833 13.7917 20.5833H12.5773C12.6067 20.1399 12.6643 19.6989 12.7495 19.2627C12.8915 18.6474 13.2912 16.9877 13.5436 16.25H17.0417C17.64 16.25 18.125 15.765 18.125 15.1667C18.125 14.5683 17.64 14.0833 17.0417 14.0833H14.5305C15.0798 13.0578 15.7597 12.1077 16.5531 11.2569C17.3202 10.4889 18.2197 9.8657 19.2084 9.4174V10.8333C19.2084 12.6282 20.6634 14.0833 22.4584 14.0833C23.0567 14.0833 23.5417 13.5983 23.5417 13C23.5417 12.4017 23.0567 11.9167 22.4584 11.9167C21.8601 11.9167 21.375 11.4316 21.375 10.8333V8.56915C22.2293 8.30259 23.0972 8.082 23.975 7.90832C24.898 7.72199 25.8427 7.54324 26.7917 7.37315V7.58332C26.7917 8.18163 27.2767 8.66665 27.875 8.66665C28.4733 8.66665 28.9584 8.18163 28.9584 7.58332V7.0124C29.6799 6.90407 30.4025 6.8044 31.125 6.72532V7.58332C31.125 8.18163 31.6101 8.66665 32.2084 8.66665C32.8067 8.66665 33.2917 8.18163 33.2917 7.58332V6.54549C33.36 6.54549 33.4293 6.53249 33.4965 6.52815C34.166 6.49999 34.817 6.49999 35.4584 6.52707V10.8333C35.4584 11.4316 35.9434 11.9167 36.5417 11.9167H38.7084C39.3067 11.9167 39.7917 11.4316 39.7917 10.8333C39.7917 10.235 39.3067 9.74999 38.7084 9.74999H37.625V6.76324C39.5205 7.08446 41.3533 7.70309 43.0558 8.59624C43.0558 8.62116 43.0417 8.64174 43.0417 8.66665V11.9167C43.0417 12.515 43.5267 13 44.125 13C44.7233 13 45.2084 12.515 45.2084 11.9167V9.84749C45.919 10.3079 46.6384 10.8106 47.375 11.3772V14.0833C47.375 14.6816 46.89 15.1667 46.2917 15.1667C45.6934 15.1667 45.2084 15.6517 45.2084 16.25C45.2084 16.8483 45.6934 17.3333 46.2917 17.3333C48.0866 17.3333 49.5417 15.8782 49.5417 14.0833V13.3412C50.6427 14.5495 51.4504 15.9953 51.9023 17.5662C52.2696 18.9085 52.5176 20.2807 52.6433 21.6667H50.625C50.0267 21.6667 49.5417 22.1517 49.5417 22.75C49.5417 23.3483 50.0267 23.8333 50.625 23.8333H52.769C52.7765 24.1876 52.7939 24.5397 52.7885 24.8972C52.783 25.2742 52.7419 25.6371 52.7007 26H50.625C50.0267 26 49.5417 26.485 49.5417 27.0833C49.5417 27.6816 50.0267 28.1667 50.625 28.1667H52.211C51.9451 28.9549 51.5873 29.709 51.145 30.4135Z" fill="#2F80ED"/>
</svg>
